<svg xmlns="http://www.w3.org/2000/svg" viewBox="0 0 560 720" role="img" aria-labelledby="bookPageDemoTitle bookPageDemoDesc">
  <title id="bookPageDemoTitle">The Great Gatsby book detail view demo</title>
  <desc id="bookPageDemoDesc">A single clean book page SVG showing The Great Gatsby by F. Scott Fitzgerald with a site link and edit control.</desc>
  <defs>
    <linearGradient id="paper" x1="0" x2="1" y1="0" y2="1">
      <stop offset="0" stop-color="#fffaf0" />
      <stop offset="0.54" stop-color="#fffdf7" />
      <stop offset="1" stop-color="#f2e5cf" />
    </linearGradient>
    <linearGradient id="spine" x1="0" x2="1">
      <stop offset="0" stop-color="#b79d75" />
      <stop offset="0.38" stop-color="#decbaa" />
      <stop offset="1" stop-color="#f0e2ca" />
    </linearGradient>
    <filter id="pageShadow" x="-8%" y="-6%" width="116%" height="116%">
      <feDropShadow dx="0" dy="18" stdDeviation="16" flood-color="#0f172a" flood-opacity="0.18" />
    </filter>
    <style>
      .title { font: 700 43px ui-serif, Georgia, serif; fill: #111827; letter-spacing: 0; }
      .author { font: 500 22px ui-sans-serif, system-ui, sans-serif; fill: #475569; letter-spacing: 0; }
      .action { font: 700 18px ui-sans-serif, system-ui, sans-serif; fill: #1d4ed8; letter-spacing: 0; }
    </style>
  </defs>

  <rect width="560" height="720" fill="#f8fafc" />

  <g filter="url(#pageShadow)">
    <path d="M62 34h396c25 0 45 20 45 45v562c0 25-20 45-45 45H62c-25 0-45-20-45-45V79c0-25 20-45 45-45z" fill="url(#paper)" />
    <path d="M62 34h26v652H62c-25 0-45-20-45-45V79c0-25 20-45 45-45z" fill="url(#spine)" opacity="0.95" />
    <g opacity="0.32">
      <path d="M470 52c11 9 17 22 17 38v540c0 16-6 29-17 38" fill="none" stroke="#d6c3a4" stroke-width="1.4" stroke-linecap="round" />
      <path d="M478 58c9 8 14 19 14 33v538c0 14-5 25-14 33" fill="none" stroke="#eadbc3" stroke-width="1.1" stroke-linecap="round" />
      <path d="M485 66c6 7 9 16 9 27v534c0 11-3 20-9 27" fill="none" stroke="#f3e7d3" stroke-width="1" stroke-linecap="round" />
    </g>
    <path d="M62 34h396c25 0 45 20 45 45v562c0 25-20 45-45 45H62c-25 0-45-20-45-45V79c0-25 20-45 45-45z" fill="none" stroke="#d7c3a1" stroke-width="2" />

    <path d="M70 78v554" stroke="#a88e66" stroke-width="2.2" stroke-linecap="round" opacity="0.3" />
    <path d="M81 92v526" stroke="#fff7ea" stroke-width="3.2" stroke-linecap="round" opacity="0.66" />
    <path d="M140 126h286M140 164h300M140 202h278M140 240h300M140 278h278M140 316h300M140 354h278M140 392h300M140 430h278M140 468h300M140 506h278" stroke="#eadbc3" stroke-width="1.5" stroke-linecap="round" opacity="0.5" />
    <path d="M141 604h286" stroke="#d6c3a4" stroke-width="2" stroke-linecap="round" opacity="0.8" />

    <g transform="translate(430 74)" aria-label="Edit">
      <rect x="0" y="0" width="50" height="50" rx="16" fill="none" stroke="#d7c3a1" stroke-width="2" />
      <path d="M31 9l10 10-4 4-10-10z" fill="#fda4af" />
      <path d="M27 13l10 10-3 3-10-10z" fill="#94a3b8" />
      <path d="M14 26l10-10 10 10-10 10z" fill="#facc15" />
      <path d="M14 26l4-4 10 10-4 4z" fill="#f59e0b" opacity="0.72" />
      <path d="M8 42l6-16 10 10z" fill="#fde68a" />
      <path d="M8 42l3-8 5 5z" fill="#111827" />
      <path d="M20 20l10 10" stroke="#fef3c7" stroke-width="1.7" stroke-linecap="round" opacity="0.72" />
    </g>

    <g transform="translate(108 132)">
      <rect x="0" y="0" width="344" height="252" rx="28" fill="#fffefa" stroke="#dac5a1" stroke-width="2" />
      <path d="M28 45h288" stroke="#efe1c9" stroke-width="2" stroke-linecap="round" />
      <text class="title" x="172" y="112" text-anchor="middle">The Great</text>
      <text class="title" x="172" y="162" text-anchor="middle">Gatsby</text>
      <text class="author" x="172" y="215" text-anchor="middle">F. Scott Fitzgerald</text>
    </g>

    <g transform="translate(197 548)">
      <rect x="0" y="0" width="166" height="42" rx="21" fill="#eff6ff" stroke="#bfdbfe" />
      <circle cx="29" cy="21" r="12" fill="#dbeafe" />
      <path d="M24 21h16M33 14l7 7-7 7" stroke="#2563eb" stroke-width="2.35" stroke-linecap="round" stroke-linejoin="round" fill="none" />
      <text class="action" x="98" y="27" text-anchor="middle">Go to site</text>
    </g>
  </g>
</svg>
