<svg xmlns="http://www.w3.org/2000/svg" viewBox="0 0 741 605" role="img" aria-label="Corrected GB logo" shape-rendering="geometricPrecision">
<defs>
<linearGradient id="greenGrad" x1="5%" y1="80%" x2="80%" y2="10%"><stop offset="0%" stop-color="#005c37"/><stop offset="55%" stop-color="#00683f"/><stop offset="100%" stop-color="#004528"/></linearGradient>
<linearGradient id="darkGrad" x1="0%" y1="0%" x2="100%" y2="100%"><stop offset="0%" stop-color="#252b33"/><stop offset="60%" stop-color="#171b22"/><stop offset="100%" stop-color="#0f1116"/></linearGradient>
<linearGradient id="goldGrad" x1="10%" y1="90%" x2="90%" y2="10%"><stop offset="0%" stop-color="#b67c1b"/><stop offset="55%" stop-color="#f1cd71"/><stop offset="100%" stop-color="#a16f19"/></linearGradient>
</defs>
<g fill-rule="evenodd">
<path d="M 426.25 272.00 L 245.25 273.00 L 187.50 347.75 L 301.50 348.00 L 275.00 403.25 L 249.00 448.25 L 207.00 505.50 L 159.50 554.00 L 123.25 582.00 L 90.50 602.75 L 136.25 588.75 L 189.25 564.75 L 241.25 531.75 L 280.50 498.75 L 318.75 456.50 L 351.75 410.25 L 380.75 361.25 Z M 528.25 41.00 L 239.50 40.00 L 218.50 42.00 L 185.50 49.00 L 149.50 62.00 L 119.50 78.00 L 84.25 104.00 L 58.00 131.25 L 33.00 167.50 L 12.00 216.50 L 3.00 260.50 L 3.00 308.25 L 12.00 353.25 L 31.00 398.25 L 59.00 439.50 L 88.25 468.75 L 118.50 490.75 L 146.50 505.75 L 173.50 515.75 L 197.75 489.50 L 226.75 450.25 L 185.50 438.00 L 162.50 426.00 L 138.25 408.00 L 106.75 370.25 L 89.75 333.25 L 82.75 295.25 L 82.75 271.50 L 88.75 239.50 L 95.75 219.50 L 111.75 190.50 L 142.25 156.75 L 182.50 131.75 L 232.50 117.75 L 441.25 117.75 Z" fill="url(#greenGrad)"/>
<path d="M 685.50 139.00 L 682.75 139.50 L 667.00 122.25 L 652.25 112.00 L 621.25 98.00 L 593.50 92.00 L 518.00 170.25 L 577.25 171.75 L 589.25 174.75 L 608.00 186.25 L 618.00 201.50 L 617.00 206.25 L 618.50 204.00 L 621.00 212.50 L 620.00 233.25 L 614.00 247.25 L 611.00 247.50 L 611.75 250.75 L 603.25 259.00 L 599.50 259.00 L 599.75 261.75 L 572.25 271.00 L 447.50 271.00 L 401.00 360.25 L 396.00 364.50 L 395.00 371.25 L 346.00 448.25 L 300.00 502.50 L 246.50 549.00 L 601.25 548.75 L 634.25 543.75 L 633.50 541.75 L 675.25 523.75 L 698.75 505.75 L 716.75 487.25 L 721.75 475.50 L 724.75 475.25 L 731.75 453.50 L 733.75 454.25 L 736.75 432.50 L 738.75 436.25 L 739.75 432.25 L 736.75 376.50 L 735.25 379.75 L 732.75 372.25 L 734.75 369.50 L 731.75 369.25 L 731.75 362.50 L 729.75 363.25 L 724.50 348.25 L 701.25 322.00 L 668.25 301.00 L 682.75 287.00 L 692.75 271.50 L 695.50 271.75 L 703.25 248.00 L 704.75 250.25 L 705.25 240.00 L 706.75 242.25 L 706.75 186.50 L 705.25 188.75 L 700.50 166.25 Z M 395.25 469.75 L 396.50 467.75 L 397.75 468.75 L 400.75 468.25 L 397.75 466.00 L 397.75 464.50 L 407.75 442.25 L 419.75 408.25 L 419.75 405.50 L 422.75 398.25 L 428.75 376.25 L 433.00 351.25 L 434.00 351.50 L 434.50 353.75 L 436.25 353.00 L 436.50 350.75 L 587.25 350.75 L 588.50 351.75 L 595.25 351.75 L 612.25 356.75 L 624.25 362.75 L 631.25 367.75 L 642.00 378.50 L 644.00 381.50 L 643.25 384.75 L 646.00 384.50 L 650.00 393.50 L 649.75 396.75 L 648.00 395.50 L 649.00 401.25 L 650.00 397.00 L 651.00 397.50 L 651.00 401.25 L 652.00 402.50 L 652.00 419.25 L 649.00 430.25 L 646.00 436.25 L 644.00 435.50 L 644.75 438.75 L 642.50 441.75 L 641.00 440.50 L 641.75 442.00 L 639.00 446.50 L 628.75 455.75 L 614.25 464.00 L 612.00 463.75 L 611.50 462.00 L 611.25 465.00 L 602.25 468.00 L 590.50 469.00 L 589.25 470.00 Z" fill="url(#darkGrad)"/>
<path d="M 679.25 2.00 L 641.50 22.00 L 610.50 41.00 L 556.50 78.00 L 513.25 112.00 L 475.25 145.00 L 435.50 183.00 L 405.00 214.25 L 371.00 253.25 L 435.25 253.75 L 449.75 229.50 L 469.75 200.50 L 497.75 165.25 L 528.75 130.25 L 562.25 96.75 L 592.25 69.75 L 623.50 43.75 L 664.50 12.75 L 678.75 3.50 Z" fill="url(#goldGrad)"/>
</g></svg>